<?xml version="1.0" standalone="no"?><!DOCTYPE svg PUBLIC "-//W3C//DTD SVG 1.1//EN" "http://www.w3.org/Graphics/SVG/1.1/DTD/svg11.dtd"><svg t="1541141604268" class="icon" style="" viewBox="0 0 1024 1024" version="1.1" xmlns="http://www.w3.org/2000/svg" p-id="9562" xmlns:xlink="http://www.w3.org/1999/xlink" width="200" height="200"><defs><style type="text/css"></style></defs><path d="M803.84 80.057H220.105c-77.314 0-139.94 62.845-139.94 140.428v583.03c0 77.584 62.626 140.427 139.94 140.427h583.787c77.316 0 139.942-62.842 139.942-140.428V220.486C943.78 142.902 881.15 80.057 803.84 80.057z m-66.129 399.967v90.282H557.144v43.28H737.71v90.284H557.144v92.209h-90.289v-92.21H286.173v-90.282h180.682v-43.281H286.173v-90.282h169.498L267.529 291.766l63.845-63.844 180.571 180.683 180.681-180.683 63.843 63.844L568.33 480.024h169.381z" p-id="9563" fill="#ed5565"></path></svg>