<?xml version="1.0" standalone="no"?><!DOCTYPE svg PUBLIC "-//W3C//DTD SVG 1.1//EN" "http://www.w3.org/Graphics/SVG/1.1/DTD/svg11.dtd"><svg class="icon" width="200px" height="200.00px" viewBox="0 0 1024 1024" version="1.1" xmlns="http://www.w3.org/2000/svg"><path d="M216.9 595.3c9.6 14.3 49.4 74.8 249.2 360.6l1.6 1.6c11.1 14.3 30.3 23.9 47.8 23.9 19.1 0 38.2-9.6 47.8-25.5 86-124.2 247.6-357.4 253.9-365.4l1.6-1.6c33.4-55.7 52.5-121 52.5-186.3 0-195-159.2-355.8-355.8-355.8S160.4 206 160.4 402.6c0 68.5 19.1 133.8 56.5 192.7z" fill="#BBD7FF" /><path d="M515.8 22.1c-209.4 0-380.5 170.4-380.5 380.5 0 74 20.7 143.3 62.1 206.2l1.6 2.4c37.4 55.7 121 176.7 248.4 359l3.2 4c15.9 19.1 41.4 31.8 66.1 31.8 27.9 0 54.1-14.3 67.7-37.4C681.5 829.3 824 623.9 836.8 606.4l2.4-2.4 1.6-2.4c35.8-60.5 55.7-131.4 55.7-199-0.2-209.3-171.3-380.5-380.7-380.5z m289 552l-1.6 1.6c-8.9 11.3-257 370.4-259.4 373.7l-0.8 1.6c-4.9 8.1-15.4 13.8-26.7 13.8-9.7 0-21.9-6.5-28.4-14.6l-2.4-2.4c-129-184.9-213.3-306.4-251.4-364l-0.8-1.6C196.9 527.1 179 466.3 179 400.6 179 215 329.8 64.2 515.4 63.4c186.4 0 337.2 151.6 337.2 337.2 0 59.2-17 120.8-47.8 173.5z" fill="#444444" /><path d="M775.7 277.7c-6 0-11.8-3-15.2-8.4-42.1-66.4-106.5-115.6-181.2-138.4-9.5-2.9-14.8-13-11.9-22.4 2.9-9.5 12.9-14.8 22.4-11.9 82.9 25.3 154.3 79.9 201 153.6 5.3 8.4 2.8 19.5-5.6 24.8-2.9 1.8-6.2 2.7-9.5 2.7z" fill="#FFFFFF" /><path d="M515.8 169.9c-122.6 0-222.1 99.5-222.1 222.1s99.5 222.1 222.1 222.1c121.8 0 222.1-99.5 222.1-222.1s-99.5-222.1-222.1-222.1z m0 402.8c-99.6 0-180.8-81.2-180.8-180.8s81.2-180.8 180.8-180.8c99.6 0 180.8 81.2 180.8 180.8s-81.2 180.8-180.8 180.8z" fill="#444444" /></svg>