<svg xmlns="http://www.w3.org/2000/svg" viewBox="0 0 157.03 142.49"><defs><style>.cls-1{fill:#baf4ea;}.cls-2{fill:#2d5b56;}.cls-3{fill:#fff;}</style></defs><title>资源 1</title><g id="图层_2" data-name="图层 2"><g id="图层_1-2" data-name="图层 1"><path class="cls-1" d="M127.12,135.61H27.34A7.34,7.34,0,0,1,20,128.28v-8H134.5v8a7.38,7.38,0,0,1-7.36,7.33Z"/><path class="cls-2" d="M117.07,142.48H37.42a24.28,24.28,0,0,1-24.29-24.26V42.34H141.35v75.85a24.33,24.33,0,0,1-24.29,24.29ZM26.87,56.09v62.11a10.53,10.53,0,0,0,10.54,10.52h79.66a10.54,10.54,0,0,0,10.52-10.52V56.09Z"/><path class="cls-1" d="M88,135.61H67.77a4.19,4.19,0,0,1-4.2-4.19h0V118.49a3,3,0,0,1,2.95-2.94H89.33a3,3,0,0,1,2.94,2.94v12.93a4.23,4.23,0,0,1-4.22,4.19Z"/><path class="cls-2" d="M86.87,142.48h-18a12.25,12.25,0,0,1-12.25-12.25V106.49A10.62,10.62,0,0,1,67.28,95.87H88.45a10.65,10.65,0,0,1,10.62,10.62v23.75a12.25,12.25,0,0,1-12.22,12.25ZM70.44,128.74h15V109.57h-15Z"/><path class="cls-3" d="M13,70.38,29.43,80.76,41,76.2l12.83-9.47,8.24,3.36,12.51,8.24,15.58-.61,10.65-9.47h6.42l8.52,8.56L131,79.24l11.31-4.88,7-14-7-36.33L130.51,6.59,25.79,7.21,9.31,50.26Z"/><path class="cls-1" d="M142,44l4.14,9.1a14.86,14.86,0,0,1-3.32,17l-4,3.85a15,15,0,0,1-14.43,3.54l-16.51-4.76a15,15,0,0,0-11.53,1.37l-8.44,4.84a14.91,14.91,0,0,1-12.9.93l-15.6-6.16A14.81,14.81,0,0,0,49,73.53L33,79.12A14.94,14.94,0,0,1,14.81,72l-2.94-5.62a14.91,14.91,0,0,1-.55-12.63l4.37-10.54c2.33-5.65,7.87-13.71,14-13.64l99,1.35c5.77.07,11,7.9,13.37,13.15Z"/><path class="cls-2" d="M30.67,87h-.42A30.69,30.69,0,0,1,2.49,44.23a11.72,11.72,0,0,1,.59-2.06L16.39,7.66A12,12,0,0,1,27.57,0H38.35a6.87,6.87,0,0,1,0,13.74H28.78L16,46.88l-.07,1-.56,1.2A16.95,16.95,0,1,0,47,60.81a6.86,6.86,0,1,1,13.25,3.58A30.67,30.67,0,0,1,30.67,87Z"/><path class="cls-2" d="M59.25,13.75H54.76A6.87,6.87,0,0,1,54.76,0h4.49a6.87,6.87,0,0,1,0,13.74ZM126.36,87H126a30.79,30.79,0,0,1-23.6-11.46A30.68,30.68,0,0,1,48.92,64.45a6.87,6.87,0,1,1,13.22-3.71l0,.08a16.95,16.95,0,0,0,32.36,1.07,6.85,6.85,0,0,1,6.72-4.61l2.84.1A6.86,6.86,0,0,1,110.35,62a17,17,0,0,0,15.82,11.33h.19a17,17,0,0,0,15.11-24.65,6.54,6.54,0,0,1-.59-1.65L128,13.76H80.22A6.87,6.87,0,0,1,80.22,0h49A12,12,0,0,1,140.4,7.67l13.31,34.51c.12.32.22.61.32.93A30.68,30.68,0,0,1,126.36,87Z"/><path class="cls-2" d="M27.95,12.57l-13.12,34-.07,1-.46,1a17.7,17.7,0,0,0-1.72,8.19,18.13,18.13,0,0,0,35.72,3.9,5.7,5.7,0,0,1,11.08,2.66A29.54,29.54,0,0,1,30.7,85.88h-.42A29.52,29.52,0,0,1,3.61,44.62a10.76,10.76,0,0,1,.56-2L17.49,8.12A10.85,10.85,0,0,1,27.55,1.22m101.68,0a10.86,10.86,0,0,1,10.06,6.89L152.6,42.58c.12.3.22.62.32.94a29.52,29.52,0,0,1-26.56,42.32h-.3A29.56,29.56,0,0,1,97.68,63.32a5.69,5.69,0,0,1,11.07-2.66,18.17,18.17,0,0,0,17.39,13.78h.17a18.18,18.18,0,0,0,18.11-18,17.63,17.63,0,0,0-2-8.34l-.37-.71-.15-.73L128.76,12.57"/></g></g></svg>