<?xml version="1.0" standalone="no"?><!DOCTYPE svg PUBLIC "-//W3C//DTD SVG 1.1//EN" "http://www.w3.org/Graphics/SVG/1.1/DTD/svg11.dtd"><svg class="icon" width="200px" height="200.00px" viewBox="0 0 1024 1024" version="1.1" xmlns="http://www.w3.org/2000/svg"><path d="M817.51 360.294c84.702 0 153.6-68.898 153.6-153.6s-68.898-153.6-153.6-153.6-153.6 68.899-153.6 153.6c0 21.556 4.506 42.053 12.527 60.69l-153.702 95.965c-48.504-60.945-123.153-100.198-206.916-100.198-145.87 0-264.534 118.664-264.534 264.533S169.95 792.218 315.82 792.218c77.226 0 146.636-33.502 195.038-86.46l158.02 114.841a110.131 110.131 0 0 0 8.362 103.902H436.702a25.6 25.6 0 0 0 0 51.2h341.333c2.338 0 4.608-0.426 6.759-1.04 54.425-6.998 96.7-53.573 96.7-109.893 0-61.167-49.767-110.933-110.934-110.933a110.421 110.421 0 0 0-70.997 25.77l-157.97-114.773a262.758 262.758 0 0 0 38.742-137.148c0-43.776-10.837-84.992-29.73-121.395l153.805-96.017a153.037 153.037 0 0 0 113.1 50.022z" fill="#71AA53" /><path d="M770.577 805.035c32.939 0 59.733 26.794 59.733 59.733s-26.794 59.733-59.733 59.733-59.733-26.794-59.733-59.733 26.811-59.733 59.733-59.733z m-455.014-64.802c-117.64 0-213.334-95.693-213.334-213.334s95.693-213.333 213.334-213.333 213.333 95.693 213.333 213.333-95.71 213.334-213.333 213.334zM817.51 104.294c56.474 0 102.4 45.927 102.4 102.4s-45.926 102.4-102.4 102.4-102.4-45.926-102.4-102.4 45.944-102.4 102.4-102.4z" fill="#DEFFE7" /><path d="M373.658 571.563h-33.041l0.153-16.93h32.888c15.291 0 27.272-9.165 27.272-20.907 0-11.708-11.98-20.873-27.272-20.873h-17.955l40.022-68.54c4.13-7.065 5.41-15.172 3.533-22.254a20.343 20.343 0 0 0-9.472-12.698c-10.633-6.11-26.027-0.12-32.973 12.732l-28.28 52.087c-10.052 18.842-10.769 20.43-10.769 20.43l-0.546 1.21c-13.431-26.282-37.649-71.287-38.929-73.676-6.912-12.834-22.682-18.688-33.707-12.373a21.726 21.726 0 0 0-10.052 13.431c-1.894 7.083-0.683 15.087 3.294 21.948l37.274 64.205 1.945 3.481h-19.678c-15.291 0-27.272 9.165-27.272 20.873 0 11.742 11.98 20.906 27.272 20.906h35.311l-0.153 16.948h-35.158c-15.291 0-27.272 9.233-27.272 21.026 0 11.025 10.41 19.729 25.378 20.804h37.256l-0.153 22.494c0 15.036 10.786 27.272 24.03 27.272 13.158 0 23.671-11.741 23.961-26.828v-23.262L379 613c13.125-2.031 21.914-10.24 21.914-20.395 0.017-11.81-11.964-21.043-27.255-21.043z" fill="#71AA53" /></svg>