<?xml version="1.0" standalone="no"?><!DOCTYPE svg PUBLIC "-//W3C//DTD SVG 1.1//EN" "http://www.w3.org/Graphics/SVG/1.1/DTD/svg11.dtd"><svg t="1542779763748" class="icon" style="" viewBox="0 0 1024 1024" version="1.1" xmlns="http://www.w3.org/2000/svg" p-id="9830" xmlns:xlink="http://www.w3.org/1999/xlink" width="200" height="200"><defs><style type="text/css"></style></defs><path d="M862.90625 932.1875H162.96875c-38.71875 0-70.125-31.40625-70.125-70.125V432.5c0-38.71875 31.40625-70.125 70.125-70.125h699.9375c38.71875 0 70.125 31.40625 70.125 70.125v429.5625c0 38.71875-31.40625 70.125-70.125 70.125z" fill="#00AAFF" p-id="9831"></path><path d="M784.0625 227.5625H239.9375c-32.4375 0-58.78125 26.34375-58.78125 58.78125v45.9375h661.6875v-45.9375c0-32.53125-26.34375-58.78125-58.78125-58.78125z" fill="#FC592D" p-id="9832"></path><path d="M721.25 91.34375H306.59375c-32.4375 0-58.78125 26.34375-58.78125 58.78125v45.9375H780.125v-45.9375c-0.09375-32.4375-26.34375-58.78125-58.875-58.78125z" fill="#FFCE00" p-id="9833"></path></svg>