<?xml version="1.0" encoding="utf-8"?>
<!-- Generator: Adobe Illustrator 21.0.0, SVG Export Plug-In . SVG Version: 6.00 Build 0)  -->
<svg version="1.1" id="图层_1" xmlns="http://www.w3.org/2000/svg" xmlns:xlink="http://www.w3.org/1999/xlink" x="0px" y="0px"
	 viewBox="0 0 200 200" style="enable-background:new 0 0 200 200;" xml:space="preserve">
<style type="text/css">
	.st0{fill:#43494B;}
	.st1{fill:#FEE56A;}
</style>
<path class="st0" d="M159.7,70.4c16.5,0,30-13.5,30-30s-13.5-30-30-30s-30,13.5-30,30c0,4.2,0.9,8.2,2.4,11.9l-30,18.7
	C92.6,59.1,78,51.4,61.7,51.4C33.2,51.4,10,74.6,10,103.1s23.2,51.7,51.7,51.7c15.1,0,28.6-6.5,38.1-16.9l30.9,22.4
	c-2.9,6.6-2.3,14.2,1.6,20.3h-47c-2.8,0-5,2.2-5,5c0,2.8,2.2,5,5,5l0,0H152c0.5,0,0.9-0.1,1.3-0.2c10.6-1.4,18.9-10.5,18.9-21.5
	c0-11.9-9.7-21.7-21.7-21.7c-5.1,0-10,1.8-13.9,5l-30.9-22.4c4.9-8.1,7.6-17.3,7.6-26.8c0-8.6-2.1-16.6-5.8-23.7l30-18.8
	C143.2,66.8,151.3,70.4,159.7,70.4z"/>
<path class="st1" d="M150.5,157.2c6.4,0,11.7,5.2,11.7,11.7c0,6.4-5.2,11.7-11.7,11.7c-6.4,0-11.7-5.2-11.7-11.7
	C138.8,162.5,144.1,157.2,150.5,157.2L150.5,157.2z M61.6,144.6c-23,0-41.7-18.7-41.7-41.7s18.7-41.7,41.7-41.7s41.7,18.7,41.7,41.7
	S84.6,144.6,61.6,144.6z M159.7,20.4c11,0,20,9,20,20s-9,20-20,20s-20-9-20-20S148.6,20.4,159.7,20.4z"/>
<path class="st0" d="M73,111.6h-6.5l0-3.3H73c3,0,5.3-1.8,5.3-4.1c0-2.3-2.3-4.1-5.3-4.1h-3.5l7.8-13.4c0.8-1.4,1.1-3,0.7-4.3
	c-0.3-1-0.9-1.9-1.8-2.5c-2.1-1.2-5.1,0-6.4,2.5l-5.5,10.2c-2,3.7-2.1,4-2.1,4L62,96.8c-2.6-5.1-7.4-13.9-7.6-14.4
	c-1.3-2.5-4.4-3.7-6.6-2.4c-1,0.6-1.7,1.5-2,2.6c-0.4,1.4-0.1,2.9,0.6,4.3l7.3,12.5l0.4,0.7h-3.8c-3,0-5.3,1.8-5.3,4.1
	c0,2.3,2.3,4.1,5.3,4.1h6.9l0,3.3h-6.9c-3,0-5.3,1.8-5.3,4.1c0,2.2,2,3.9,5,4.1h7.3l0,4.4c0,2.9,2.1,5.3,4.7,5.3
	c2.6,0,4.6-2.3,4.7-5.2v-4.5l7.5,0c2.6-0.4,4.3-2,4.3-4C78.3,113.4,76,111.6,73,111.6L73,111.6z"/>
</svg>
