<?xml version="1.0" standalone="no"?><!DOCTYPE svg PUBLIC "-//W3C//DTD SVG 1.1//EN" "http://www.w3.org/Graphics/SVG/1.1/DTD/svg11.dtd"><svg class="icon" width="200px" height="200.00px" viewBox="0 0 1024 1024" version="1.1" xmlns="http://www.w3.org/2000/svg"><path d="M848.64 136.192c-17.664-14.848-41.984-27.904-72.448-38.656-58.368-20.736-134.912-32-216.064-32s-157.952 11.264-216.064 32c-30.464 10.752-54.784 23.808-72.448 38.656-28.672 24.064-34.816 48.896-34.816 65.792v118.784c-39.936 14.336-76.544 37.632-107.264 68.352C73.984 444.416 43.52 517.632 43.52 595.712s30.464 151.552 85.76 206.848c55.296 55.296 128.768 85.504 206.848 85.504 53.248 0 104.448-14.08 148.992-40.704 24.32 2.304 49.664 3.328 75.008 3.328 81.152 0 157.952-11.264 216.064-32 30.464-10.752 54.784-23.808 72.448-38.656 28.672-24.064 34.816-48.896 34.816-65.792V201.728c0-16.64-6.144-41.472-34.816-65.536z m-512.768 684.8c-124.16 0-225.28-101.12-225.28-225.28s101.12-225.28 225.28-225.28 225.28 101.12 225.28 225.28c0 124.416-100.864 225.28-225.28 225.28z m480.512-106.496c0 6.144-15.36 24.32-62.464 40.96-51.2 18.176-120.064 28.16-193.792 28.16 18.432-21.76 33.28-45.824 44.288-71.68 65.28-3.328 125.696-14.336 172.544-31.744 15.36-5.632 28.416-11.52 39.424-17.664v51.968z m0-110.336c-9.728 9.728-27.392 20.992-56.064 31.488-38.144 14.08-86.528 23.552-139.776 27.648 5.12-21.76 7.68-44.288 7.68-67.328 0-4.352 0-8.704-0.256-13.056 58.112-4.864 111.616-15.872 153.344-31.744 13.568-5.12 25.088-10.496 35.072-16.128v69.12z m0-128c-9.216 9.216-25.856 19.968-52.224 29.952-38.144 14.592-87.552 24.576-142.08 28.928-5.888-27.904-15.616-54.528-29.44-79.36 67.84-2.56 130.816-13.312 180.224-30.72 16.384-5.888 30.72-12.288 43.264-19.2v70.4z m0-129.024c-10.496 10.496-29.952 22.272-59.392 32.768-52.224 18.432-121.856 28.672-196.608 28.672-5.632-6.656-11.52-13.056-17.664-19.456-55.296-55.296-128.768-85.76-206.848-85.76-11.008 0-21.76 0.512-32.256 1.792v-35.328c12.8 7.168 27.648 13.824 44.544 19.712 57.856 20.48 134.656 32 215.808 32 81.152 0 157.696-11.264 215.808-32 13.568-4.864 25.6-9.984 36.608-15.616v73.216z m0-129.024c-11.008 8.448-28.16 17.664-52.736 26.368-52.992 18.688-123.904 29.184-199.68 29.184s-146.688-10.24-199.68-29.184c-31.232-11.008-50.432-23.04-60.672-33.28v-9.472c0-6.144 15.36-24.32 62.72-40.96 51.2-18.176 120.064-28.16 193.792-28.16 73.728 0 142.592 9.984 193.792 28.16 47.36 16.64 62.464 34.816 62.464 40.96v16.384z" fill="#614750" /><path d="M335.872 370.432c-124.16 0-225.28 101.12-225.28 225.28s101.12 225.28 225.28 225.28 225.28-101.12 225.28-225.28-100.864-225.28-225.28-225.28z m0 409.856c-101.632 0-184.32-82.688-184.32-184.32 0-42.752 14.848-84.48 41.984-117.248 8.448-10.24 23.552-11.776 33.792-3.328s11.52 23.552 3.328 33.792c-19.968 24.32-31.232 55.04-31.232 86.784 0 75.264 61.184 136.448 136.448 136.448 13.312 0 23.808 10.752 23.808 24.064 0.256 13.056-10.496 23.808-23.808 23.808z m0-321.024c-14.848 0-29.44 2.304-43.264 6.912-2.56 0.768-5.12 1.28-7.68 1.28-9.984 0-19.456-6.4-22.784-16.384-4.096-12.544 2.56-26.112 15.104-30.208 18.688-6.4 38.4-9.472 58.624-9.472 13.312 0 23.808 10.752 23.808 24.064 0.256 13.056-10.496 23.808-23.808 23.808z m480.512 203.52v51.712c0 6.144-15.36 24.32-62.464 40.96-51.2 18.176-120.064 28.16-193.792 28.16 18.432-21.76 33.28-45.824 44.288-71.68 65.28-3.328 125.696-14.336 172.544-31.744 15.36-5.376 28.416-11.264 39.424-17.408z m0-128v69.376c-9.728 9.728-27.392 20.992-56.064 31.488-38.144 14.08-86.528 23.552-139.776 27.648 5.12-21.76 7.68-44.288 7.68-67.328 0-4.352 0-8.704-0.256-13.056 58.112-4.864 111.616-15.872 153.344-31.744 13.568-5.376 25.088-10.752 35.072-16.384z m0-129.024v70.4c-9.216 9.216-25.856 19.968-52.224 29.952-38.144 14.592-87.552 24.576-142.08 28.928-5.888-27.904-15.616-54.528-29.44-79.36 67.84-2.56 130.816-13.312 180.224-30.72 16.384-5.888 30.976-12.288 43.52-19.2z m0-131.584v72.96c-10.496 10.496-29.952 22.272-59.392 32.768-52.224 18.432-121.856 28.672-196.608 28.672-5.632-6.656-11.52-13.056-17.664-19.456-55.296-55.296-128.768-85.76-206.848-85.76-11.008 0-21.76 0.512-32.256 1.792v-35.328c12.8 7.168 27.648 13.824 44.544 19.712 57.856 20.48 134.656 32 215.808 32 81.152 0 157.696-11.264 215.808-32 13.312-4.608 25.6-9.728 36.608-15.36z" fill="#FEE56A" /><path d="M816.384 201.728v16.384c-11.008 8.448-28.16 17.664-52.736 26.368-52.992 18.688-123.904 29.184-199.68 29.184s-146.688-10.24-199.68-29.184c-31.232-11.008-50.432-23.04-60.672-33.28v-9.472c0-6.144 15.36-24.32 62.72-40.96 51.2-18.176 120.064-28.16 193.792-28.16 73.728 0 142.592 9.984 193.792 28.16 47.104 16.64 62.464 34.816 62.464 40.96z" fill="#FEE56A" /><path d="M359.936 756.224c0 13.312-10.752 23.808-23.808 23.808-101.632 0-184.32-82.688-184.32-184.32 0-42.752 14.848-84.48 41.984-117.248 8.448-10.24 23.552-11.776 33.792-3.328s11.52 23.552 3.328 33.792c-19.968 24.32-31.232 55.04-31.232 86.784 0 75.264 61.184 136.448 136.448 136.448 13.056 0.256 23.808 11.008 23.808 24.064z m0-321.024c0 13.312-10.752 23.808-23.808 23.808-14.848 0-29.44 2.304-43.264 6.912-2.56 0.768-5.12 1.28-7.68 1.28-9.984 0-19.456-6.4-22.784-16.384-4.096-12.544 2.56-26.112 15.104-30.208 18.688-6.4 38.4-9.472 58.624-9.472 13.056 0.256 23.808 11.008 23.808 24.064z" fill="#614750" /></svg>