<?xml version="1.0" standalone="no"?><!DOCTYPE svg PUBLIC "-//W3C//DTD SVG 1.1//EN" "http://www.w3.org/Graphics/SVG/1.1/DTD/svg11.dtd"><svg class="icon" width="200px" height="200.00px" viewBox="0 0 1024 1024" version="1.1" xmlns="http://www.w3.org/2000/svg"><path d="M565.76 343.552l1.024 1.024c11.776 7.168 27.648 9.216 37.888 20.992 11.776 11.776 34.304 35.328 34.304 51.2l-6.656 441.856 97.792 23.552c8.704 1.536 17.92 0 25.088-4.608s12.288-11.776 14.336-19.456l92.16-387.072c2.56-8.704 0-17.92-5.12-26.624-5.12-9.728-14.336-19.456-21.504-27.648-21.504-23.04-45.568-50.176-67.072-73.216-18.944-20.48-35.84-39.424-47.104-51.712-2.56-3.584-2.56-3.584-3.584-3.584-5.12-6.144-12.288-15.36-15.872-15.36-2.56-1.024-13.312 2.56-21.504 6.144-2.56 1.024-3.584 1.024-4.608 1.536-15.872 5.12-39.424 14.336-65.024 24.064a2927.902 2927.902 0 0 1-65.024 25.088l1.536 1.024c9.216 6.656 15.36 11.264 18.944 12.8z" fill="#FFD05B" /><path d="M346.624 365.568a51.2 51.2 0 1 0 102.4 0 51.2 51.2 0 1 0-102.4 0z" fill="#F15A24" /><path d="M907.776 428.032s0-0.512 0 0c-7.168-11.776-15.872-22.528-25.088-32.256-20.48-22.528-44.544-49.152-67.072-73.216-18.432-19.456-34.816-38.4-47.104-50.688-1.024-1.536-1.024-1.536-2.56-3.584-8.192-8.704-17.92-20.48-28.672-23.04-9.728-1.536-24.064 3.584-34.816 8.192-0.512 0-1.536 0-4.096 1.024-16.896 6.144-39.936 15.36-65.024 25.088-26.624 9.728-54.784 20.48-79.872 30.208h-1.024c-14.848-9.728-30.208-20.48-44.032-30.208-24.064-15.872-45.568-31.232-62.464-43.008-2.56-1.536-3.584-1.536-4.608-2.56-9.728-7.168-24.064-15.872-34.816-15.872-10.752 0-24.064 8.704-34.816 15.872-1.024 1.024-1.024 1.024-4.608 2.56-15.872 11.264-36.864 25.088-59.392 40.96-0.512 0.512-1.536 0-1.536-0.512-3.072-15.872 2.56-33.792 23.552-55.808 16.896-18.944 25.6-35.84 28.672-49.664 1.536-16.896-4.608-30.208-15.872-40.96-10.752-8.704-26.112-15.872-43.008-20.48-44.544-10.752-105.984-8.192-141.824 1.024-6.144 1.536-9.728 8.192-8.704 14.336 1.536 6.144 8.192 9.728 14.336 8.192 33.792-8.192 90.112-10.752 130.048-1.024 14.336 3.584 26.112 8.704 33.792 15.36 6.144 5.12 8.704 12.288 8.192 20.48-1.536 9.728-8.192 22.528-22.528 37.376-31.744 34.304-36.352 62.976-27.136 86.528 0 0.512 0 1.024-0.512 1.024-24.064 15.872-48.64 32.768-69.12 47.104-11.776 7.168-24.064 15.872-34.816 27.648s-18.944 26.112-18.944 41.984v491.52c0 0.512 0.512 1.024 1.024 1.024h486.4v-26.624l51.712 12.288 107.008 26.112 1.536-7.168L844.8 762.368l69.632-289.792c4.608-16.384 0.512-31.232-6.656-44.544zM626.688 878.08H186.88c-0.512 0-1.024-0.512-1.024-1.024V409.088c0-9.728 5.12-18.944 12.288-26.624 8.704-8.704 20.48-16.896 30.208-24.064 22.016-14.336 46.08-30.208 68.096-46.08 0.512-0.512 1.024 0 1.024 0 3.072 3.584 6.144 6.656 10.24 10.24 11.264 11.264 26.112 19.968 40.96 27.136 0.512 0 0.512 1.024 0.512 1.024-5.12 9.728-7.68 19.968-7.68 30.208 0 18.944 7.168 34.816 18.944 46.592 11.776 11.776 27.648 18.944 45.568 18.944s33.792-7.168 46.592-18.944c11.776-11.776 18.944-27.648 18.944-46.592 0-17.92-7.168-33.792-18.944-45.568-12.288-11.776-28.672-18.944-46.592-18.944-15.872 0-29.696 5.12-41.472 14.848-0.512 0-0.512 0.512-1.024 0-14.336-7.168-29.184-15.872-40.448-26.624-1.536-1.536-4.608-4.608-6.144-7.168l1.024-1.024c25.088-16.896 48.128-32.256 62.464-41.984l4.608-3.584c8.192-4.608 17.92-11.776 21.504-11.776 4.608 0 14.336 7.168 21.504 11.776l5.12 3.584c14.336 9.728 36.352 25.088 61.44 41.984 20.48 14.336 43.008 29.184 64 43.52 3.584 2.56 5.12 3.584 6.144 4.608 2.56 1.536 8.704 6.144 17.92 11.776l1.024 2.048c10.752 7.168 22.528 15.36 30.208 24.064 8.192 8.192 12.288 16.896 12.288 26.624V878.08zM410.112 348.16h-1.024c-1.536-1.024-8.192-2.56-16.896-5.12 4.608-1.536 8.704-2.56 14.336-2.56 11.776 0 22.528 4.608 29.184 11.776C443.904 360.448 448 371.2 448 381.44c0 11.776-4.608 22.528-12.288 29.184-7.168 8.192-17.92 12.288-29.184 12.288-11.776 0-21.504-4.608-29.184-12.288-7.168-7.168-11.776-17.92-11.776-29.184 0-7.68 1.536-14.848 5.12-20.48 0-0.512 0.512-0.512 1.024-0.512 16.384 6.144 28.672 9.728 31.232 10.24h1.024c6.144 1.536 12.288-1.536 14.336-8.192 1.536-6.144-2.048-12.288-8.192-14.336z m482.304 117.76L792.064 884.736l-29.184-7.168c-1.024-0.512-1.536-0.512-2.56-0.512l-56.832-13.824-4.608-1.024-48.64-11.776s-0.512 0-0.512-0.512V737.28h-0.512V409.088c0-15.872-7.168-30.208-18.944-41.984-9.728-11.776-22.528-20.48-33.792-27.648l-1.024-1.024c-3.584-1.536-9.728-6.144-18.944-12.288l-1.536-1.024c22.528-8.192 44.544-16.896 65.024-25.088 26.112-9.728 49.152-18.944 65.024-24.064 1.024-1.024 1.536-1.024 4.608-1.536 8.192-3.584 18.944-7.168 21.504-6.144 3.584 0 10.752 8.704 15.872 15.36 1.024 0 1.024 0 3.584 3.584 11.776 12.288 28.672 31.232 47.104 51.712 21.504 23.04 45.568 50.176 67.072 73.216 7.168 8.192 15.872 17.92 21.504 27.648 6.144 8.704 8.704 17.408 6.144 26.112z" fill="#42210B" /></svg>