<?xml version="1.0" standalone="no"?><!DOCTYPE svg PUBLIC "-//W3C//DTD SVG 1.1//EN" "http://www.w3.org/Graphics/SVG/1.1/DTD/svg11.dtd"><svg class="icon" width="200px" height="200.00px" viewBox="0 0 1024 1024" version="1.1" xmlns="http://www.w3.org/2000/svg"><path d="M467.968 337.92c71.68 0 130.048-58.368 130.048-130.048S539.648 77.824 467.968 77.824s-129.536 58.88-129.536 130.56S396.288 337.92 467.968 337.92z m0-216.064c47.616 0 86.528 38.912 86.528 86.528 0 47.616-38.912 86.528-86.528 86.528S381.44 256 381.44 208.384c0-47.616 38.912-86.528 86.528-86.528z m281.6 477.696c71.68 0 130.048-58.368 130.048-130.048s-58.368-130.048-130.048-130.048S619.52 397.824 619.52 469.504s58.368 130.048 130.048 130.048z m0-216.576c47.616 0 86.528 38.912 86.528 86.528s-38.912 86.528-86.528 86.528-86.528-38.912-86.528-86.528 38.4-86.528 86.528-86.528zM944.64 774.144c-8.192-30.72-43.52-88.064-118.784-88.064H645.12c-0.512-0.512-0.512-1.024-1.024-1.024C611.84 645.12 563.2 622.08 509.952 622.08h-80.384c-51.712-63.488-138.24-80.896-177.664-85.504v-23.552c0-11.776-9.728-21.504-21.504-21.504H100.352c-11.776 0-21.504 9.728-21.504 21.504v389.632c0 11.776 9.728 21.504 21.504 21.504H230.4c11.776 0 21.504-9.728 21.504-21.504V872.96c55.296 25.6 165.376 73.216 216.064 73.216h0.512c123.392-0.512 450.048-140.288 463.872-145.92 9.728-5.12 15.36-15.872 12.288-26.112zM208.384 880.64h-86.528V534.528h86.528V880.64z m259.584 21.504c-43.52 0-161.28-51.712-216.576-77.824V579.584c36.864 5.12 110.592 21.504 149.504 75.776 4.096 5.632 10.752 9.216 17.408 9.216h91.648c39.936 0 76.8 16.896 100.352 47.104 10.24 12.288 16.896 25.6 20.48 38.912H378.88c-11.776 0-21.504 9.728-21.504 21.504 0 11.776 9.728 21.504 21.504 21.504h276.48c11.776 0 21.504-9.728 21.504-21.504 0-14.848-2.56-29.184-7.68-43.52h156.672c38.912 0 59.392 22.528 69.12 38.912-73.216 31.232-328.704 134.144-427.008 134.656z"  /><path d="M121.856 534.528h86.528V880.64h-86.528z" fill="#00B6F6" /></svg>