<?xml version="1.0" standalone="no"?><!DOCTYPE svg PUBLIC "-//W3C//DTD SVG 1.1//EN" "http://www.w3.org/Graphics/SVG/1.1/DTD/svg11.dtd"><svg class="icon" width="200px" height="200.00px" viewBox="0 0 1024 1024" version="1.1" xmlns="http://www.w3.org/2000/svg"><path d="M916.94 450.79l-69.97-10.782c-18.662-2.868-38.133-17.828-43.34-33.25-5.16-15.38-15.089-65.454-3.932-80.665l41.902-57.134c11.162-15.237 9.385-38.6-3.968-51.932l-30.633-30.659c-13.353-13.353-36.715-15.15-51.932-3.948l-57.134 41.882c-15.237 11.182-39.434 14.403-53.77 7.168-14.362-7.23-57.298-35.778-60.17-54.415l-10.778-69.965c-2.862-18.683-20.67-33.94-39.542-33.94h-43.34c-18.873 0-36.68 15.252-39.543 33.92l-10.782 69.97c-2.868 18.662-17.828 38.138-33.25 43.34-15.4 5.182-65.454 15.11-80.686 3.927l-57.113-41.881c-15.237-11.182-38.62-9.385-51.953 3.947l-30.638 30.654c-13.373 13.353-15.15 36.715-3.968 51.932l41.902 57.134c11.162 15.237 14.377 39.414 7.168 53.77-7.23 14.357-35.778 57.283-54.415 60.145l-69.97 10.782c-18.683 2.862-33.936 20.67-33.936 39.537v43.34c0 18.873 15.253 36.68 33.92 39.543l69.97 10.777c18.663 2.873 38.14 17.849 43.341 33.25 5.161 15.4 15.089 65.474 3.927 80.69l-41.902 57.135c-11.161 15.237-9.385 38.615 3.968 51.932l30.638 30.653c13.353 13.358 36.716 15.15 51.953 3.968l57.134-41.922c15.237-11.141 39.414-14.377 53.77-7.163 14.357 7.23 57.283 35.773 60.145 54.415l10.783 69.97c2.862 18.663 20.648 33.92 39.536 33.92h43.341c18.872 0 36.68-15.257 39.542-33.92l10.777-69.97c2.873-18.662 17.828-38.139 33.25-43.32 15.4-5.181 65.454-15.089 80.67-3.932l57.155 41.922c15.237 11.162 38.594 9.365 51.932-3.968l30.633-30.653c13.379-13.333 15.15-36.716 3.968-51.932l-41.902-57.134c-11.162-15.237-14.377-39.414-7.163-53.75 7.23-14.382 35.773-57.318 54.415-60.19l69.97-10.778c18.663-2.862 33.915-20.65 33.915-39.542v-43.341c0.026-18.867-15.237-36.675-33.894-39.537zM512 685.542c-95.836 0-173.537-77.7-173.537-173.542 0-95.836 77.7-173.537 173.537-173.537 95.841 0 173.542 77.7 173.542 173.537 0 95.841-77.7 173.542-173.542 173.542z" fill="#FFC700" /><path d="M533.668 968.76h-43.341c-27.878 0-53.023-21.575-57.252-49.126l-10.777-69.955c-2.499-8.57-32.251-31.954-50.494-41.139-2.437-1.224-6.246-1.93-10.445-1.93-8.719 0-18.411 2.964-24.688 7.557l-57.114 41.907c-9.503 6.969-21.57 10.814-33.971 10.814-15.693 0-30.73-6.042-41.257-16.564l-30.638-30.653c-19.702-19.65-22.236-52.685-5.755-75.192l41.907-57.14c4.398-7.895-0.04-45.22-6.471-64.399-2.755-8.156-16.067-19.23-29.077-21.232L104.32 590.93c-27.53-4.219-49.106-29.363-49.106-57.252v-43.34c0-27.88 21.586-53.029 49.142-57.253l69.954-10.777c8.571-2.499 31.96-32.251 41.145-50.494 3.778-7.52 2.15-24.514-5.622-35.118l-41.892-57.129c-16.507-22.461-13.977-55.5 5.76-75.207l30.623-30.644c10.516-10.516 25.549-16.542 41.247-16.542 12.41 0 24.478 3.84 33.986 10.813l57.103 41.872c-0.081 0.005 2.888 1.638 13.61 1.638 18.652 0 42.649-5.36 50.774-8.095 8.182-2.76 19.257-16.066 21.254-29.076l10.782-69.975c4.224-27.53 29.369-49.106 57.252-49.106h43.341c27.883 0 53.033 21.586 57.257 49.147l10.772 69.95c2.499 8.565 32.272 31.953 50.52 41.143 2.457 1.24 6.271 1.946 10.465 1.946 8.714 0 18.386-2.964 24.642-7.557l57.14-41.887c9.477-6.973 21.544-10.823 33.96-10.823 15.683 0 30.71 6.03 41.237 16.552l30.638 30.664c19.697 19.661 22.231 52.695 5.75 75.192l-41.907 57.145c-4.311 7.736 0.184 45.634 6.471 64.368 2.755 8.167 16.062 19.241 29.072 21.238l69.98 10.783c27.556 4.229 49.121 29.384 49.085 57.272v43.32c0 27.884-21.575 53.028-49.121 57.258l-69.955 10.772c-8.576 2.504-31.959 32.282-41.134 50.53-3.783 7.53-2.16 24.504 5.612 35.107l41.897 57.13c16.522 22.481 13.988 55.525-5.77 75.217l-30.613 30.623c-10.522 10.521-25.549 16.553-41.247 16.553-12.395-0.005-24.448-3.835-33.95-10.793l-57.16-41.923h0.005c-0.056 0-3.41-1.623-13.588-1.623-18.663 0-42.655 5.356-50.775 8.085-8.192 2.749-19.252 16.04-21.254 29.06l-10.777 69.976c-4.224 27.51-29.374 49.09-57.257 49.09zM361.359 770.77c9.877 0 19.057 1.992 26.548 5.75 0.66 0.332 64.711 34.498 69.816 67.712l10.777 69.96c1.531 9.983 11.73 18.728 21.827 18.728h43.34c10.103 0 20.302-8.745 21.827-18.713l10.783-69.986c3.917-25.472 23.368-50.227 45.256-57.574 12.283-4.137 39.71-9.953 62.192-9.953 15.545 0 26.927 2.8 34.78 8.56l57.155 41.923c3.39 2.483 7.926 3.855 12.76 3.86 6.169 0 12.108-2.263 15.897-6.051l30.628-30.649c7.163-7.142 8.181-20.52 2.206-28.656l-41.912-57.15c-15.258-20.828-19.01-51.947-8.724-72.397 0.322-0.645 34.457-64.737 67.701-69.852l69.965-10.777c9.979-1.531 18.724-11.73 18.724-21.832v-43.34c0.015-10.108-8.72-20.297-18.688-21.827l-69.985-10.783c-25.447-3.907-50.207-23.352-57.59-45.23-0.236-0.707-21.176-70.037-1.398-96.993l41.902-57.135c5.965-8.14 4.951-21.534-2.18-28.651l-30.65-30.674c-3.788-3.789-9.732-6.057-15.892-6.057-4.823 0-9.349 1.377-12.738 3.87l-57.165 41.903c-12.37 9.078-29.507 14.5-45.834 14.5-9.907 0-19.098-2.002-26.599-5.78-0.635-0.318-64.701-34.49-69.81-67.692L555.5 109.819c-1.531-10-11.73-18.75-21.832-18.75h-43.341c-10.097 0-20.296 8.745-21.827 18.714l-10.782 69.98c-3.907 25.447-23.353 50.207-45.23 57.595-12.314 4.142-39.742 9.969-62.219 9.969-15.554 0-26.936-2.806-34.8-8.576l-57.109-41.877c-3.404-2.498-7.946-3.87-12.784-3.87-6.17 0-12.114 2.257-15.898 6.046l-30.633 30.654c-7.153 7.142-8.177 20.526-2.207 28.656l41.908 57.134c15.252 20.823 19.005 51.948 8.734 72.413-0.332 0.66-34.498 64.711-67.712 69.816l-69.96 10.777c-9.994 1.531-18.749 11.73-18.749 21.827v43.34c0 10.103 8.745 20.302 18.714 21.827l69.98 10.783c25.436 3.912 50.196 23.358 57.59 45.22 0.24 0.727 21.16 70.083 1.397 97.03l-41.902 57.133c-5.97 8.146-4.956 21.535 2.171 28.641l30.659 30.674c3.794 3.8 9.738 6.068 15.903 6.068 4.833 0 9.37-1.378 12.769-3.871l57.139-41.923c12.421-9.067 29.563-14.48 45.88-14.48zM512 703.462c-105.57 0-191.457-85.888-191.457-191.462S406.43 320.543 512 320.543 703.462 406.43 703.462 512 617.57 703.462 512 703.462z m0-347.08c-85.806 0-155.617 69.812-155.617 155.618 0 85.811 69.81 155.622 155.617 155.622 85.811 0 155.622-69.81 155.622-155.622 0-85.806-69.81-155.617-155.622-155.617z" fill="#333333" /><path d="M407.22 512c0 57.871 46.914 104.78 104.78 104.78S616.78 569.872 616.78 512 569.872 407.22 512 407.22 407.22 454.128 407.22 512z" fill="#FFC700" /><path d="M512 443.06c38.016 0 68.94 30.93 68.94 68.94s-30.924 68.94-68.94 68.94-68.94-30.924-68.94-68.94 30.924-68.94 68.94-68.94m0-35.84c-57.871 0-104.78 46.914-104.78 104.78S454.133 616.78 512 616.78 616.78 569.872 616.78 512 569.872 407.22 512 407.22z" fill="#333333" /></svg>