<?xml version="1.0" standalone="no"?><!DOCTYPE svg PUBLIC "-//W3C//DTD SVG 1.1//EN" "http://www.w3.org/Graphics/SVG/1.1/DTD/svg11.dtd"><svg class="icon" width="200px" height="200.00px" viewBox="0 0 1024 1024" version="1.1" xmlns="http://www.w3.org/2000/svg"><path d="M1009.279 511.002c0 274.633-222.64 497.274-497.28 497.274-274.634 0-497.276-222.64-497.276-497.274 0-274.648 222.642-497.289 497.275-497.289 274.64 0 497.28 222.639 497.28 497.29z" fill="#12B7F5" /><path d="M511.998 907.27c-218.508 0-396.27-177.777-396.27-396.268 0-218.508 177.762-396.284 396.27-396.284 218.507 0 396.276 177.776 396.276 396.284 0 218.491-177.77 396.269-396.276 396.269z m0-761.342c-201.3 0-365.074 163.761-365.074 365.074 0 201.298 163.775 365.075 365.074 365.075 201.298 0 365.075-163.777 365.075-365.075-0.002-201.313-163.779-365.074-365.075-365.074z" fill="#FFFFFF" /><path d="M512.005 260.04c5.933 0 11.314 3.316 13.751 8.4l63.672 134.26c3.686 7.734 10.928 13.14 19.337 14.426l146.52 22.113c5.5 0.817 10.216 4.662 11.927 9.688 1.658 4.904 0.379 10.247-3.308 14.003L656.528 571.804a26.21 26.21 0 0 0-7.153 22.676l24.862 151.032c0.877 5.22-1.398 10.488-5.835 13.562a15.525 15.525 0 0 1-8.991 2.876 15.838 15.838 0 0 1-7.54-1.939l-127.742-69.84a25.3 25.3 0 0 0-12.126-3.087 25.38 25.38 0 0 0-12.115 3.087l-127.616 69.796c-2.391 1.285-5.011 1.981-7.635 1.981-3.187 0-6.426-1.044-8.902-2.77-4.555-3.18-6.861-8.445-5.991-13.699l24.898-150.999c1.34-8.28-1.287-16.71-7.168-22.676L260.106 462.9c-3.686-3.726-4.966-9.067-3.337-13.91 1.75-5.088 6.471-8.932 11.997-9.75l146.488-22.112c8.438-1.287 15.652-6.692 19.335-14.426l63.673-134.213c2.435-5.133 7.808-8.448 13.743-8.448z" fill="#FFFFFF" /></svg>