<?xml version="1.0" standalone="no"?><!DOCTYPE svg PUBLIC "-//W3C//DTD SVG 1.1//EN" "http://www.w3.org/Graphics/SVG/1.1/DTD/svg11.dtd"><svg class="icon" width="200px" height="200.00px" viewBox="0 0 1024 1024" version="1.1" xmlns="http://www.w3.org/2000/svg"><path d="M796.672 727.552l-277.504 30.72-93.184 101.888-119.808-120.832-250.88-7.168 8.192-419.328h733.184v414.72z" fill="#AEE6FF" /><path d="M661.504 433.664H196.096c-9.216-0.512-17.408 7.168-17.408 16.384-0.512 9.216 7.168 17.408 16.384 17.408h465.92c9.216 0.512 17.408-7.168 17.408-16.384s-7.168-17.408-16.384-17.408h-0.512zM592.896 591.36H264.704c-9.216 0-16.896 7.68-16.896 16.896s7.68 16.896 16.896 16.896h328.192c9.216 0.512 17.408-7.168 17.408-16.384s-7.168-17.408-16.384-17.408h-1.024z" fill="#01A4EA" /><path d="M925.184 115.712H263.168c-42.496 0-77.312 34.304-77.312 75.776v41.984c0 13.824 11.264 25.6 25.6 25.6 13.824 0 25.6-11.264 25.6-25.6v-41.984c0-13.824 11.776-25.088 26.624-25.088h662.016c14.336 0 26.624 11.264 26.624 25.088v406.016c0 13.824-11.776 25.088-26.624 25.088h-40.448c-13.824-0.512-25.6 10.24-26.112 24.576-0.512 13.824 10.24 25.6 24.576 26.112h42.496c42.496 0 77.312-34.304 77.312-76.288V191.488c-1.024-41.984-35.328-75.776-78.336-75.776z" fill="#01A4EA" /><path d="M759.808 276.48H97.792c-42.496 0-77.312 30.208-77.312 67.584v361.984c0 37.376 34.816 67.584 77.312 67.584H314.88l92.672 124.416c7.68 10.24 23.552 13.312 35.328 6.144 3.072-1.536 5.12-3.584 7.168-6.144l92.672-124.416h217.088c17.92 0 35.84-5.632 49.664-16.384 17.408-12.8 27.648-31.744 27.648-51.712V344.064c0-37.376-34.816-67.584-77.312-67.584z m26.624 429.568c0 8.704-5.632 14.336-9.216 16.896-4.608 3.584-10.752 5.632-17.408 5.632H528.896c-8.704 0-16.384 3.584-20.992 10.24L428.544 844.8l-78.848-105.984c-4.608-6.144-12.8-10.24-20.992-10.24H97.792c-14.848 0-26.624-10.24-26.624-22.528V344.064c0-12.288 11.776-22.528 26.624-22.528H760.32c14.848 0 26.624 10.24 26.624 22.528l-0.512 361.984z" fill="#01A4EA" /></svg>