<?xml version="1.0" standalone="no"?><!DOCTYPE svg PUBLIC "-//W3C//DTD SVG 1.1//EN" "http://www.w3.org/Graphics/SVG/1.1/DTD/svg11.dtd"><svg class="icon" width="200px" height="200.00px" viewBox="0 0 1024 1024" version="1.1" xmlns="http://www.w3.org/2000/svg"><path d="M778.24 960.853H155.307c-34.134 0-61.44-27.306-61.44-61.44V114.347c0-34.134 27.306-61.44 61.44-61.44H778.24c34.133 0 61.44 27.306 61.44 61.44v785.066c1.707 32.427-27.307 61.44-61.44 61.44z" fill="#BED3F4" /><path d="M419.84 972.8H158.72c-37.547 0-68.267-30.72-68.267-68.267V119.467c0-37.547 30.72-68.267 68.267-68.267h619.52c37.547 0 68.267 30.72 68.267 68.267V476.16" fill="#BED3F4" /><path d="M419.84 989.867H158.72c-47.787 0-85.333-37.547-85.333-85.334V119.467c0-47.787 37.546-85.334 85.333-85.334h619.52c47.787 0 85.333 37.547 85.333 85.334V476.16c0 10.24-6.826 17.067-17.066 17.067S829.44 486.4 829.44 476.16V119.467c0-29.014-22.187-51.2-51.2-51.2H158.72c-29.013 0-51.2 22.186-51.2 51.2v785.066c0 29.014 22.187 51.2 51.2 51.2h261.12c10.24 0 17.067 6.827 17.067 17.067s-8.534 17.067-17.067 17.067z" fill="#4E6DC4" /><path d="M750.933 242.347H186.027c-10.24 0-17.067-6.827-17.067-17.067s6.827-17.067 17.067-17.067h564.906c10.24 0 17.067 6.827 17.067 17.067s-8.533 17.067-17.067 17.067zM517.12 378.88H186.027c-10.24 0-17.067-6.827-17.067-17.067s6.827-17.066 17.067-17.066H517.12c10.24 0 17.067 6.826 17.067 17.066s-6.827 17.067-17.067 17.067z m-93.867 136.533H186.027c-10.24 0-17.067-6.826-17.067-17.066s6.827-17.067 17.067-17.067h237.226c10.24 0 17.067 6.827 17.067 17.067s-6.827 17.066-17.067 17.066z" fill="#566EB5" /><path d="M599.04 641.707a122.88 122.88 0 1 0 245.76 0 122.88 122.88 0 1 0-245.76 0z" fill="#DCE5F7" /><path d="M721.92 779.947c-76.8 0-139.947-63.147-139.947-139.947S645.12 500.053 721.92 500.053 861.867 563.2 861.867 640 798.72 779.947 721.92 779.947z m0-244.054c-58.027 0-105.813 47.787-105.813 105.814 0 58.026 47.786 105.813 105.813 105.813s105.813-47.787 105.813-105.813c0-59.734-47.786-105.814-105.813-105.814z" fill="#4E6DC4" /><path d="M928.427 965.973C926.72 853.333 834.56 762.88 721.92 762.88s-204.8 90.453-206.507 203.093" fill="#DCE5F7" /><path d="M530.773 967.68H496.64c1.707-121.173 102.4-220.16 223.573-220.16s221.867 98.987 223.574 220.16h-34.134c-1.706-102.4-87.04-186.027-189.44-186.027-100.693-1.706-186.026 81.92-189.44 186.027z" fill="#4E6DC4" /></svg>