<?xml version="1.0" standalone="no"?><!DOCTYPE svg PUBLIC "-//W3C//DTD SVG 1.1//EN" "http://www.w3.org/Graphics/SVG/1.1/DTD/svg11.dtd"><svg t="1540346521618" class="icon" style="" viewBox="0 0 1024 1024" version="1.1" xmlns="http://www.w3.org/2000/svg" p-id="815" xmlns:xlink="http://www.w3.org/1999/xlink" width="200" height="200"><defs><style type="text/css"></style></defs><path d="M982.21859 316.625121c-6.451981 114.892656-2.867991 225.995322-2.867991 225.995322l-276.171172 9.318972s19.353942-40.14088-18.636944-115.506653C605.592719 274.949246 519.679977 69.125863 701.029433 17.927016 832.612039-15.456884 949.756688-18.424875 979.248599 155.242605c9.522971 56.422831 5.938982 108.236676 2.969991 161.381516zM321.536571 803.124662l-276.88817-9.317972s3.583989-111.103667-2.866991-225.995322c-2.969991-53.042841-6.65598-104.959685 2.969991-161.279517 29.489912-173.873479 146.942559-170.699488 278.935164-137.419588 181.861455 51.199847 95.640713 257.124229 16.48595 418.505745-37.989886 75.365774-18.635944 115.506654-18.635944 115.506654z m-27.340918 198.859404c-72.703782 26.52192-220.05634 69.426792-252.312244-150.936547h284.568147c-0.103 0 40.344879 124.415627-32.255903 150.936547z m688.020937-402.224794c-32.255903 220.363339-179.199463 177.458468-251.697245 151.039547-72.601782-26.62392-32.255903-151.039547-32.255903-151.039547h283.953148z" fill="#92D564" p-id="816"></path></svg>